<svg width="1328" height="254" viewBox="0 0 1328 254" fill="none" xmlns="http://www.w3.org/2000/svg">
<path d="M171.032 180.806C215.709 172.43 242.931 143.107 242.931 101.223C242.931 51.6579 203.144 11.1676 142.412 11.1676H0V353.928H157.069C217.801 353.928 258.292 314.835 258.292 263.877C258.292 218.501 224.087 186.386 171.032 180.806ZM52.3584 58.6423H138.221C171.032 58.6423 192.673 79.5831 192.673 108.902C192.673 137.526 171.034 159.861 138.221 159.861H52.3584V58.6423ZM148.693 306.459H52.3584V205.237H148.693C182.199 205.237 203.841 226.876 203.841 255.496C203.841 284.819 182.199 306.459 148.693 306.459Z" fill="#909092"/>
<path d="M360.213 169.634V104.014L308.551 120.073V353.93H360.213V212.217C360.213 164.748 402.796 135.43 457.941 150.786V101.924C417.453 92.148 377.666 107.504 360.213 169.634Z" fill="#909092"/>
<path d="M496.339 120.073V353.929H547.302V104.014L496.339 120.073ZM522.166 0C504.713 0 490.058 13.9627 490.058 32.1123C490.058 49.5651 504.715 63.5215 522.166 63.5215C539.617 63.5215 554.278 49.563 554.278 32.1123C554.28 13.9627 539.619 0 522.166 0Z" fill="#909092"/>
<path d="M746.252 99.1259C702.97 99.1259 670.163 125.653 656.899 168.236V104.014L605.238 120.073V353.929H656.899V212.216C656.899 173.823 685.519 145.902 726.707 145.902C763.004 145.902 790.929 173.823 790.929 212.216V353.929H842.586V204.539C842.586 143.106 803.494 99.1259 746.252 99.1259Z" fill="#909092"/>
<path d="M1041.54 149.39V104.014H971.038V6.28528L919.377 22.3403V104.016H866.326V149.392H919.377V262.48C919.377 323.911 949.399 353.929 1013.62 353.929H1041.54V307.854H1013.62C983.603 307.854 971.038 295.289 971.038 264.573V149.392H1041.54V149.39Z" fill="#909092"/>
<path d="M1198.61 99.1259C1124.61 99.1259 1068.76 154.977 1068.76 228.973C1068.76 302.27 1126 358.815 1200.7 358.815C1255.85 358.815 1297.74 329.496 1319.38 288.309L1276.1 269.459C1262.13 296.685 1234.91 314.138 1202.79 314.138C1159.51 314.138 1127.4 285.518 1120.42 245.726H1327.05C1336.13 164.746 1278.89 99.1259 1198.61 99.1259ZM1121.82 205.935C1130.89 169.634 1160.21 143.106 1198.61 143.106C1238.4 143.106 1267.02 169.634 1275.4 205.935H1121.82Z" fill="#909092"/>
</svg>
