<svg width="240" height="240" viewBox="0 0 240 240" fill="none" xmlns="http://www.w3.org/2000/svg">
<path d="M67.9697 20.74C68.5697 20.74 69.0497 20.26 69.0497 19.66C69.0497 19.06 68.5697 18.58 67.9697 18.58C67.3697 18.58 66.8896 19.06 66.8896 19.66C66.8896 20.26 67.3697 20.74 67.9697 20.74Z" fill="#202022"/>
<path d="M28.1202 44.0901C28.7902 44.0901 29.3302 43.6101 29.3302 43.0101C29.3302 42.4101 28.7902 41.9301 28.1202 41.9301C27.4502 41.9301 26.9102 42.4101 26.9102 43.0101C26.9102 43.6101 27.4502 44.0901 28.1202 44.0901Z" fill="#202022"/>
<path d="M28.12 185.86C28.72 185.86 29.2 185.38 29.2 184.78C29.2 184.18 28.72 183.7 28.12 183.7C27.52 183.7 27.04 184.18 27.04 184.78C27.04 185.38 27.52 185.86 28.12 185.86Z" fill="#202022"/>
<path d="M69.0497 94.17C69.6497 94.17 70.1297 93.69 70.1297 93.09C70.1297 92.49 69.6497 92.01 69.0497 92.01C68.4497 92.01 67.9697 92.49 67.9697 93.09C67.9697 93.69 68.4497 94.17 69.0497 94.17Z" fill="#202022"/>
<path d="M95.1995 45.81C96.2595 45.81 97.1295 44.95 97.1295 43.88C97.1295 42.81 96.2695 41.95 95.1995 41.95C94.1295 41.95 93.2695 42.81 93.2695 43.88C93.2695 44.95 94.1295 45.81 95.1995 45.81Z" fill="#202022"/>
<path d="M124.26 118.52V33.6899L216.85 172.02L124.26 118.52Z" fill="#FEFEFF" stroke="#202022" stroke-linejoin="round"/>
<mask id="mask0_9_25540" style="mask-type:luminance" maskUnits="userSpaceOnUse" x="124" y="33" width="93" height="140">
<path d="M124.26 118.52V33.6899L216.85 172.02L124.26 118.52Z" fill="white"/>
</mask>
<g mask="url(#mask0_9_25540)">
<path d="M135.479 169.56H135.579C135.849 169.56 136.069 169.78 136.069 170.05C136.069 170.32 135.849 170.54 135.579 170.54H135.479C135.209 170.54 134.989 170.32 134.989 170.05C134.989 169.78 135.209 169.56 135.479 169.56Z" fill="#202022"/>
<path d="M147.58 169.57H147.68C147.94 169.57 148.16 169.78 148.16 170.05C148.16 170.31 147.95 170.53 147.68 170.53H147.58C147.32 170.53 147.1 170.32 147.1 170.05C147.1 169.79 147.31 169.57 147.58 169.57Z" fill="#202022"/>
<path d="M159.68 169.58H159.78C160.04 169.58 160.24 169.79 160.24 170.04C160.24 170.3 160.03 170.5 159.78 170.5H159.68C159.42 170.5 159.22 170.29 159.22 170.04C159.22 169.78 159.43 169.58 159.68 169.58Z" fill="#202022"/>
<path d="M171.779 169.59H171.879C172.129 169.59 172.329 169.79 172.329 170.04C172.329 170.29 172.129 170.49 171.879 170.49H171.779C171.529 170.49 171.329 170.29 171.329 170.04C171.329 169.79 171.529 169.59 171.779 169.59Z" fill="#202022"/>
<path d="M183.879 169.61H183.979C184.219 169.61 184.419 169.81 184.419 170.05C184.419 170.29 184.219 170.49 183.979 170.49H183.879C183.639 170.49 183.439 170.29 183.439 170.05C183.439 169.81 183.639 169.61 183.879 169.61Z" fill="#202022"/>
<path d="M195.98 169.62H196.08C196.32 169.62 196.51 169.81 196.51 170.05C196.51 170.29 196.32 170.48 196.08 170.48H195.98C195.74 170.48 195.55 170.29 195.55 170.05C195.55 169.81 195.74 169.62 195.98 169.62Z" fill="#202022"/>
<path d="M208.079 169.63H208.179C208.409 169.63 208.589 169.82 208.589 170.04C208.589 170.27 208.399 170.45 208.179 170.45H208.079C207.849 170.45 207.669 170.27 207.659 170.04C207.659 169.81 207.849 169.63 208.069 169.63H208.079Z" fill="#202022"/>
<path d="M135.479 152.48H135.579C135.849 152.48 136.069 152.7 136.069 152.97C136.069 153.24 135.849 153.46 135.579 153.46H135.479C135.209 153.46 134.989 153.24 134.989 152.97C134.989 152.7 135.209 152.48 135.479 152.48Z" fill="#202022"/>
<path d="M147.58 152.5H147.68C147.94 152.5 148.16 152.71 148.16 152.98C148.16 153.24 147.95 153.46 147.68 153.46H147.58C147.32 153.46 147.1 153.25 147.1 152.98C147.1 152.72 147.31 152.5 147.58 152.5Z" fill="#202022"/>
<path d="M159.68 152.51H159.78C160.04 152.51 160.24 152.72 160.24 152.97C160.24 153.23 160.03 153.43 159.78 153.43H159.68C159.42 153.43 159.22 153.22 159.22 152.97C159.22 152.71 159.43 152.51 159.68 152.51Z" fill="#202022"/>
<path d="M171.779 152.52H171.879C172.129 152.52 172.329 152.72 172.329 152.97C172.329 153.22 172.129 153.42 171.879 153.42H171.779C171.529 153.42 171.329 153.22 171.329 152.97C171.329 152.72 171.529 152.52 171.779 152.52Z" fill="#202022"/>
<path d="M183.879 152.53H183.979C184.219 152.53 184.419 152.73 184.419 152.97C184.419 153.21 184.219 153.41 183.979 153.41H183.879C183.639 153.41 183.439 153.21 183.439 152.97C183.439 152.73 183.639 152.53 183.879 152.53Z" fill="#202022"/>
<path d="M195.98 152.55H196.08C196.32 152.55 196.51 152.74 196.51 152.98C196.51 153.22 196.32 153.41 196.08 153.41H195.98C195.74 153.41 195.55 153.22 195.55 152.98C195.55 152.74 195.74 152.55 195.98 152.55Z" fill="#202022"/>
<path d="M208.079 152.56H208.179C208.409 152.56 208.589 152.75 208.589 152.97C208.589 153.2 208.399 153.38 208.179 153.38H208.079C207.849 153.38 207.669 153.19 207.659 152.97C207.659 152.74 207.849 152.56 208.069 152.56H208.079Z" fill="#202022"/>
<path d="M135.479 135.41H135.579C135.849 135.41 136.069 135.63 136.069 135.9C136.069 136.17 135.849 136.39 135.579 136.39H135.479C135.209 136.39 134.989 136.17 134.989 135.9C134.989 135.63 135.209 135.41 135.479 135.41Z" fill="#202022"/>
<path d="M147.58 135.43H147.68C147.94 135.43 148.16 135.64 148.16 135.91C148.16 136.17 147.95 136.39 147.68 136.39H147.58C147.32 136.39 147.1 136.18 147.1 135.91C147.1 135.65 147.31 135.43 147.58 135.43Z" fill="#202022"/>
<path d="M159.68 135.44H159.78C160.04 135.44 160.24 135.65 160.24 135.9C160.24 136.16 160.03 136.36 159.78 136.36H159.68C159.42 136.36 159.22 136.15 159.22 135.9C159.22 135.64 159.43 135.44 159.68 135.44Z" fill="#202022"/>
<path d="M171.779 135.45H171.879C172.129 135.45 172.329 135.65 172.329 135.9C172.329 136.15 172.129 136.35 171.879 136.35H171.779C171.529 136.35 171.329 136.15 171.329 135.9C171.329 135.65 171.529 135.45 171.779 135.45Z" fill="#202022"/>
<path d="M183.879 135.46H183.979C184.219 135.46 184.419 135.66 184.419 135.9C184.419 136.14 184.219 136.34 183.979 136.34H183.879C183.639 136.34 183.439 136.14 183.439 135.9C183.439 135.66 183.639 135.46 183.879 135.46Z" fill="#202022"/>
<path d="M195.98 135.48H196.08C196.32 135.48 196.51 135.67 196.51 135.91C196.51 136.15 196.32 136.34 196.08 136.34H195.98C195.74 136.34 195.55 136.15 195.55 135.91C195.55 135.67 195.74 135.48 195.98 135.48Z" fill="#202022"/>
<path d="M208.079 135.49H208.179C208.409 135.49 208.589 135.68 208.589 135.9C208.589 136.13 208.399 136.31 208.179 136.31H208.079C207.849 136.31 207.669 136.12 207.659 135.9C207.659 135.67 207.849 135.49 208.069 135.49H208.079Z" fill="#202022"/>
<path d="M135.479 118.34H135.579C135.849 118.34 136.069 118.56 136.069 118.83C136.069 119.1 135.849 119.32 135.579 119.32H135.479C135.209 119.32 134.989 119.1 134.989 118.83C134.989 118.56 135.209 118.34 135.479 118.34Z" fill="#202022"/>
<path d="M147.58 118.35H147.68C147.94 118.35 148.16 118.56 148.16 118.83C148.16 119.09 147.95 119.31 147.68 119.31H147.58C147.32 119.31 147.1 119.1 147.1 118.83C147.1 118.57 147.31 118.35 147.58 118.35Z" fill="#202022"/>
<path d="M159.68 118.37H159.78C160.04 118.37 160.24 118.58 160.24 118.83C160.24 119.09 160.03 119.29 159.78 119.29H159.68C159.42 119.29 159.22 119.08 159.22 118.83C159.22 118.57 159.43 118.37 159.68 118.37Z" fill="#202022"/>
<path d="M171.779 118.38H171.879C172.129 118.38 172.329 118.58 172.329 118.83C172.329 119.08 172.129 119.28 171.879 119.28H171.779C171.529 119.28 171.329 119.08 171.329 118.83C171.329 118.58 171.529 118.38 171.779 118.38Z" fill="#202022"/>
<path d="M183.879 118.39H183.979C184.219 118.39 184.419 118.59 184.419 118.83C184.419 119.07 184.219 119.27 183.979 119.27H183.879C183.639 119.27 183.439 119.07 183.439 118.83C183.439 118.59 183.639 118.39 183.879 118.39Z" fill="#202022"/>
<path d="M195.98 118.4H196.08C196.32 118.4 196.51 118.59 196.51 118.83C196.51 119.07 196.32 119.26 196.08 119.26H195.98C195.74 119.26 195.55 119.07 195.55 118.83C195.55 118.59 195.74 118.4 195.98 118.4Z" fill="#202022"/>
<path d="M208.079 118.42H208.179C208.409 118.42 208.589 118.61 208.589 118.83C208.589 119.06 208.399 119.24 208.179 119.24H208.079C207.849 119.24 207.669 119.06 207.659 118.83C207.659 118.6 207.849 118.42 208.069 118.42H208.079Z" fill="#202022"/>
<path d="M135.479 101.27H135.579C135.849 101.27 136.069 101.49 136.069 101.76C136.069 102.03 135.849 102.25 135.579 102.25H135.479C135.209 102.25 134.989 102.03 134.989 101.76C134.989 101.49 135.209 101.27 135.479 101.27Z" fill="#202022"/>
<path d="M147.58 101.28H147.68C147.94 101.28 148.16 101.49 148.16 101.76C148.16 102.02 147.95 102.24 147.68 102.24H147.58C147.32 102.24 147.1 102.03 147.1 101.76C147.1 101.5 147.31 101.28 147.58 101.28Z" fill="#202022"/>
<path d="M159.68 101.3H159.78C160.04 101.3 160.24 101.51 160.24 101.76C160.24 102.02 160.03 102.22 159.78 102.22H159.68C159.42 102.22 159.22 102.01 159.22 101.76C159.22 101.5 159.43 101.3 159.68 101.3Z" fill="#202022"/>
<path d="M171.779 101.31H171.879C172.129 101.31 172.329 101.51 172.329 101.76C172.329 102.01 172.129 102.21 171.879 102.21H171.779C171.529 102.21 171.329 102.01 171.329 101.76C171.329 101.51 171.529 101.31 171.779 101.31Z" fill="#202022"/>
<path d="M183.879 101.32H183.979C184.219 101.32 184.419 101.52 184.419 101.76C184.419 102 184.219 102.2 183.979 102.2H183.879C183.639 102.2 183.439 102 183.439 101.76C183.439 101.52 183.639 101.32 183.879 101.32Z" fill="#202022"/>
<path d="M195.98 101.33H196.08C196.32 101.33 196.51 101.52 196.51 101.76C196.51 102 196.32 102.19 196.08 102.19H195.98C195.74 102.19 195.55 102 195.55 101.76C195.55 101.52 195.74 101.33 195.98 101.33Z" fill="#202022"/>
<path d="M208.079 101.35H208.179C208.409 101.35 208.589 101.54 208.589 101.76C208.589 101.99 208.399 102.17 208.179 102.17H208.079C207.849 102.17 207.669 101.99 207.659 101.76C207.659 101.53 207.849 101.35 208.069 101.35H208.079Z" fill="#202022"/>
<path d="M135.479 84.2H135.579C135.849 84.2 136.069 84.42 136.069 84.69C136.069 84.96 135.849 85.18 135.579 85.18H135.479C135.209 85.18 134.989 84.96 134.989 84.69C134.989 84.42 135.209 84.2 135.479 84.2Z" fill="#202022"/>
<path d="M147.58 84.21H147.68C147.94 84.21 148.16 84.42 148.16 84.69C148.16 84.95 147.95 85.17 147.68 85.17H147.58C147.32 85.17 147.1 84.96 147.1 84.69C147.1 84.43 147.31 84.21 147.58 84.21Z" fill="#202022"/>
<path d="M159.68 84.22H159.78C160.04 84.22 160.24 84.43 160.24 84.68C160.24 84.94 160.03 85.14 159.78 85.14H159.68C159.42 85.14 159.22 84.93 159.22 84.68C159.22 84.42 159.43 84.22 159.68 84.22Z" fill="#202022"/>
<path d="M171.779 84.24H171.879C172.129 84.24 172.329 84.44 172.329 84.69C172.329 84.94 172.129 85.14 171.879 85.14H171.779C171.529 85.14 171.329 84.94 171.329 84.69C171.329 84.44 171.529 84.24 171.779 84.24Z" fill="#202022"/>
<path d="M183.879 84.25H183.979C184.219 84.25 184.419 84.45 184.419 84.69C184.419 84.93 184.219 85.13 183.979 85.13H183.879C183.639 85.13 183.439 84.93 183.439 84.69C183.439 84.45 183.639 84.25 183.879 84.25Z" fill="#202022"/>
<path d="M195.98 84.2599H196.08C196.32 84.2599 196.51 84.4499 196.51 84.6899C196.51 84.9299 196.32 85.1199 196.08 85.1199H195.98C195.74 85.1199 195.55 84.9299 195.55 84.6899C195.55 84.4499 195.74 84.2599 195.98 84.2599Z" fill="#202022"/>
<path d="M208.079 84.2699H208.179C208.409 84.2699 208.589 84.4599 208.589 84.6799C208.589 84.9099 208.399 85.0899 208.179 85.0899H208.079C207.849 85.0899 207.669 84.8999 207.659 84.6799C207.659 84.4499 207.849 84.2699 208.069 84.2699H208.079Z" fill="#202022"/>
<path d="M135.479 67.13H135.579C135.849 67.13 136.069 67.35 136.069 67.62C136.069 67.89 135.849 68.11 135.579 68.11H135.479C135.209 68.11 134.989 67.89 134.989 67.62C134.989 67.35 135.209 67.13 135.479 67.13Z" fill="#202022"/>
<path d="M147.58 67.14H147.68C147.94 67.14 148.16 67.35 148.16 67.62C148.16 67.88 147.95 68.1 147.68 68.1H147.58C147.32 68.1 147.1 67.89 147.1 67.62C147.1 67.36 147.31 67.14 147.58 67.14Z" fill="#202022"/>
<path d="M159.68 67.15H159.78C160.04 67.15 160.24 67.36 160.24 67.61C160.24 67.87 160.03 68.07 159.78 68.07H159.68C159.42 68.07 159.22 67.86 159.22 67.61C159.22 67.35 159.43 67.15 159.68 67.15Z" fill="#202022"/>
<path d="M171.779 67.17H171.879C172.129 67.17 172.329 67.37 172.329 67.62C172.329 67.87 172.129 68.07 171.879 68.07H171.779C171.529 68.07 171.329 67.87 171.329 67.62C171.329 67.37 171.529 67.17 171.779 67.17Z" fill="#202022"/>
<path d="M183.879 67.1799H183.979C184.219 67.1799 184.419 67.3799 184.419 67.6199C184.419 67.8599 184.219 68.0599 183.979 68.0599H183.879C183.639 68.0599 183.439 67.8599 183.439 67.6199C183.439 67.3799 183.639 67.1799 183.879 67.1799Z" fill="#202022"/>
<path d="M195.98 67.1899H196.08C196.32 67.1899 196.51 67.3799 196.51 67.6199C196.51 67.8599 196.32 68.0499 196.08 68.0499H195.98C195.74 68.0499 195.55 67.8599 195.55 67.6199C195.55 67.3799 195.74 67.1899 195.98 67.1899Z" fill="#202022"/>
<path d="M208.079 67.2H208.179C208.409 67.2 208.589 67.39 208.589 67.61C208.589 67.84 208.399 68.02 208.179 68.02H208.079C207.849 68.02 207.669 67.83 207.659 67.61C207.659 67.38 207.849 67.2 208.069 67.2H208.079Z" fill="#202022"/>
<path d="M135.479 50.0601H135.579C135.849 50.0601 136.069 50.2801 136.069 50.5501C136.069 50.8201 135.849 51.0401 135.579 51.0401H135.479C135.209 51.0401 134.989 50.8201 134.989 50.5501C134.989 50.2801 135.209 50.0601 135.479 50.0601Z" fill="#202022"/>
<path d="M147.58 50.0701H147.68C147.94 50.0701 148.16 50.2801 148.16 50.5501C148.16 50.8101 147.95 51.0301 147.68 51.0301H147.58C147.32 51.0301 147.1 50.8201 147.1 50.5501C147.1 50.2901 147.31 50.0701 147.58 50.0701Z" fill="#202022"/>
<path d="M159.68 50.0801H159.78C160.04 50.0801 160.24 50.2901 160.24 50.5401C160.24 50.8001 160.03 51.0001 159.78 51.0001H159.68C159.42 51.0001 159.22 50.7901 159.22 50.5401C159.22 50.2801 159.43 50.0801 159.68 50.0801Z" fill="#202022"/>
<path d="M171.779 50.1001H171.879C172.129 50.1001 172.329 50.3001 172.329 50.5501C172.329 50.8001 172.129 51.0001 171.879 51.0001H171.779C171.529 51.0001 171.329 50.8001 171.329 50.5501C171.329 50.3001 171.529 50.1001 171.779 50.1001Z" fill="#202022"/>
<path d="M183.879 50.1101H183.979C184.219 50.1101 184.419 50.3101 184.419 50.5501C184.419 50.7901 184.219 50.9901 183.979 50.9901H183.879C183.639 50.9901 183.439 50.7901 183.439 50.5501C183.439 50.3101 183.639 50.1101 183.879 50.1101Z" fill="#202022"/>
<path d="M195.98 50.12H196.08C196.32 50.12 196.51 50.31 196.51 50.55C196.51 50.79 196.32 50.98 196.08 50.98H195.98C195.74 50.98 195.55 50.79 195.55 50.55C195.55 50.31 195.74 50.12 195.98 50.12Z" fill="#202022"/>
<path d="M208.079 50.13H208.179C208.409 50.13 208.589 50.32 208.589 50.54C208.589 50.77 208.399 50.95 208.179 50.95H208.079C207.849 50.95 207.669 50.77 207.659 50.54C207.659 50.31 207.849 50.13 208.069 50.13H208.079Z" fill="#202022"/>
<path d="M135.479 32.99H135.579C135.849 32.99 136.069 33.21 136.069 33.48C136.069 33.75 135.849 33.97 135.579 33.97H135.479C135.209 33.97 134.989 33.75 134.989 33.48C134.989 33.21 135.209 32.99 135.479 32.99Z" fill="#202022"/>
<path d="M147.58 33H147.68C147.94 33 148.16 33.21 148.16 33.48C148.16 33.74 147.95 33.96 147.68 33.96H147.58C147.32 33.96 147.1 33.75 147.1 33.48C147.1 33.22 147.31 33 147.58 33Z" fill="#202022"/>
<path d="M159.68 33.01H159.78C160.04 33.01 160.24 33.22 160.24 33.47C160.24 33.73 160.03 33.93 159.78 33.93H159.68C159.42 33.93 159.22 33.72 159.22 33.47C159.22 33.21 159.43 33.01 159.68 33.01Z" fill="#202022"/>
<path d="M171.779 33.02H171.879C172.129 33.02 172.329 33.22 172.329 33.47C172.329 33.72 172.129 33.92 171.879 33.92H171.779C171.529 33.92 171.329 33.72 171.329 33.47C171.329 33.22 171.529 33.02 171.779 33.02Z" fill="#202022"/>
<path d="M183.879 33.04H183.979C184.219 33.04 184.419 33.24 184.419 33.48C184.419 33.72 184.219 33.92 183.979 33.92H183.879C183.639 33.92 183.439 33.72 183.439 33.48C183.439 33.24 183.639 33.04 183.879 33.04Z" fill="#202022"/>
<path d="M195.98 33.0499H196.08C196.32 33.0499 196.51 33.2399 196.51 33.4799C196.51 33.7199 196.32 33.9099 196.08 33.9099H195.98C195.74 33.9099 195.55 33.7199 195.55 33.4799C195.55 33.2399 195.74 33.0499 195.98 33.0499Z" fill="#202022"/>
<path d="M208.079 33.0599H208.179C208.409 33.0599 208.589 33.2499 208.589 33.4699C208.589 33.6999 208.399 33.8799 208.179 33.8799H208.079C207.849 33.8799 207.669 33.6899 207.659 33.4699C207.659 33.2399 207.849 33.0599 208.069 33.0599H208.079Z" fill="#202022"/>
<path d="M127.64 161.01H127.74C128.02 161.01 128.24 161.23 128.24 161.51C128.24 161.79 128.02 162.01 127.74 162.01H127.64C127.37 162.01 127.14 161.79 127.14 161.51C127.14 161.23 127.36 161.01 127.64 161.01Z" fill="#202022"/>
<path d="M139.739 161.02H139.839C140.109 161.02 140.329 161.24 140.329 161.51C140.329 161.78 140.109 162 139.839 162H139.739C139.469 162 139.249 161.78 139.249 161.51C139.249 161.24 139.469 161.02 139.739 161.02Z" fill="#202022"/>
<path d="M151.839 161.03H151.939C152.199 161.03 152.419 161.24 152.419 161.51C152.419 161.77 152.209 161.99 151.939 161.99H151.839C151.579 161.99 151.359 161.78 151.359 161.51C151.359 161.25 151.569 161.03 151.839 161.03Z" fill="#202022"/>
<path d="M163.939 161.04H164.039C164.299 161.04 164.499 161.25 164.499 161.5C164.499 161.76 164.289 161.96 164.039 161.96H163.939C163.679 161.96 163.479 161.75 163.479 161.5C163.479 161.24 163.689 161.04 163.939 161.04Z" fill="#202022"/>
<path d="M176.039 161.06H176.139C176.389 161.06 176.589 161.26 176.589 161.51C176.589 161.76 176.389 161.96 176.139 161.96H176.039C175.789 161.96 175.589 161.76 175.589 161.51C175.589 161.26 175.789 161.06 176.039 161.06Z" fill="#202022"/>
<path d="M188.139 161.07H188.239C188.479 161.07 188.679 161.27 188.679 161.51C188.679 161.75 188.479 161.95 188.239 161.95H188.139C187.899 161.95 187.699 161.75 187.699 161.51C187.699 161.27 187.899 161.07 188.139 161.07Z" fill="#202022"/>
<path d="M200.24 161.08H200.34C200.58 161.08 200.77 161.27 200.77 161.51C200.77 161.75 200.58 161.94 200.34 161.94H200.24C200 161.94 199.81 161.75 199.81 161.51C199.81 161.27 200 161.08 200.24 161.08Z" fill="#202022"/>
<path d="M212.34 161.09H212.44C212.67 161.09 212.85 161.28 212.85 161.5C212.85 161.73 212.66 161.91 212.44 161.91H212.34C212.11 161.91 211.93 161.72 211.93 161.5C211.93 161.27 212.12 161.09 212.34 161.09Z" fill="#202022"/>
<path d="M127.64 143.94H127.74C128.02 143.94 128.24 144.16 128.24 144.44C128.24 144.72 128.02 144.94 127.74 144.94H127.64C127.37 144.94 127.14 144.72 127.14 144.44C127.14 144.16 127.36 143.94 127.64 143.94Z" fill="#202022"/>
<path d="M139.739 143.95H139.839C140.109 143.95 140.329 144.17 140.329 144.44C140.329 144.71 140.109 144.93 139.839 144.93H139.739C139.469 144.93 139.249 144.71 139.249 144.44C139.249 144.17 139.469 143.95 139.739 143.95Z" fill="#202022"/>
<path d="M151.839 143.96H151.939C152.199 143.96 152.419 144.17 152.419 144.44C152.419 144.7 152.209 144.92 151.939 144.92H151.839C151.579 144.92 151.359 144.71 151.359 144.44C151.359 144.18 151.569 143.96 151.839 143.96Z" fill="#202022"/>
<path d="M163.939 143.97H164.039C164.299 143.97 164.499 144.18 164.499 144.43C164.499 144.69 164.289 144.89 164.039 144.89H163.939C163.679 144.89 163.479 144.68 163.479 144.43C163.479 144.17 163.689 143.97 163.939 143.97Z" fill="#202022"/>
<path d="M176.039 143.99H176.139C176.389 143.99 176.589 144.19 176.589 144.44C176.589 144.69 176.389 144.89 176.139 144.89H176.039C175.789 144.89 175.589 144.69 175.589 144.44C175.589 144.19 175.789 143.99 176.039 143.99Z" fill="#202022"/>
<path d="M188.139 144H188.239C188.479 144 188.679 144.2 188.679 144.44C188.679 144.68 188.479 144.88 188.239 144.88H188.139C187.899 144.88 187.699 144.68 187.699 144.44C187.699 144.2 187.899 144 188.139 144Z" fill="#202022"/>
<path d="M200.24 144.01H200.34C200.58 144.01 200.77 144.2 200.77 144.44C200.77 144.68 200.58 144.87 200.34 144.87H200.24C200 144.87 199.81 144.68 199.81 144.44C199.81 144.2 200 144.01 200.24 144.01Z" fill="#202022"/>
<path d="M212.34 144.02H212.44C212.67 144.02 212.85 144.21 212.85 144.43C212.85 144.66 212.66 144.84 212.44 144.84H212.34C212.11 144.84 211.93 144.66 211.93 144.43C211.93 144.2 212.12 144.02 212.34 144.02Z" fill="#202022"/>
<path d="M127.64 126.87H127.74C128.02 126.87 128.24 127.09 128.24 127.37C128.24 127.65 128.02 127.87 127.74 127.87H127.64C127.37 127.87 127.14 127.65 127.14 127.37C127.14 127.09 127.36 126.87 127.64 126.87Z" fill="#202022"/>
<path d="M139.739 126.88H139.839C140.109 126.88 140.329 127.1 140.329 127.37C140.329 127.64 140.109 127.86 139.839 127.86H139.739C139.469 127.86 139.249 127.64 139.249 127.37C139.249 127.1 139.469 126.88 139.739 126.88Z" fill="#202022"/>
<path d="M151.839 126.89H151.939C152.199 126.89 152.419 127.1 152.419 127.37C152.419 127.63 152.209 127.85 151.939 127.85H151.839C151.579 127.85 151.359 127.64 151.359 127.37C151.359 127.11 151.569 126.89 151.839 126.89Z" fill="#202022"/>
<path d="M163.939 126.9H164.039C164.299 126.9 164.499 127.11 164.499 127.36C164.499 127.62 164.289 127.82 164.039 127.82H163.939C163.679 127.82 163.479 127.61 163.479 127.36C163.479 127.1 163.689 126.9 163.939 126.9Z" fill="#202022"/>
<path d="M176.039 126.91H176.139C176.389 126.91 176.589 127.11 176.589 127.36C176.589 127.61 176.389 127.81 176.139 127.81H176.039C175.789 127.81 175.589 127.61 175.589 127.36C175.589 127.11 175.789 126.91 176.039 126.91Z" fill="#202022"/>
<path d="M188.139 126.93H188.239C188.479 126.93 188.679 127.13 188.679 127.37C188.679 127.61 188.479 127.81 188.239 127.81H188.139C187.899 127.81 187.699 127.61 187.699 127.37C187.699 127.13 187.899 126.93 188.139 126.93Z" fill="#202022"/>
<path d="M200.24 126.94H200.34C200.58 126.94 200.77 127.13 200.77 127.37C200.77 127.61 200.58 127.8 200.34 127.8H200.24C200 127.8 199.81 127.61 199.81 127.37C199.81 127.13 200 126.94 200.24 126.94Z" fill="#202022"/>
<path d="M212.34 126.95H212.44C212.67 126.95 212.85 127.14 212.85 127.36C212.85 127.59 212.66 127.77 212.44 127.77H212.34C212.11 127.77 211.93 127.58 211.93 127.36C211.93 127.13 212.12 126.95 212.34 126.95Z" fill="#202022"/>
<path d="M127.64 109.8H127.74C128.02 109.8 128.24 110.02 128.24 110.3C128.24 110.58 128.02 110.8 127.74 110.8H127.64C127.37 110.8 127.14 110.58 127.14 110.3C127.14 110.02 127.36 109.8 127.64 109.8Z" fill="#202022"/>
<path d="M139.739 109.81H139.839C140.109 109.81 140.329 110.03 140.329 110.3C140.329 110.57 140.109 110.79 139.839 110.79H139.739C139.469 110.79 139.249 110.57 139.249 110.3C139.249 110.03 139.469 109.81 139.739 109.81Z" fill="#202022"/>
<path d="M151.839 109.82H151.939C152.199 109.82 152.419 110.03 152.419 110.3C152.419 110.56 152.209 110.78 151.939 110.78H151.839C151.579 110.78 151.359 110.57 151.359 110.3C151.359 110.04 151.569 109.82 151.839 109.82Z" fill="#202022"/>
<path d="M163.939 109.83H164.039C164.299 109.83 164.499 110.04 164.499 110.29C164.499 110.55 164.289 110.75 164.039 110.75H163.939C163.679 110.75 163.479 110.54 163.479 110.29C163.479 110.03 163.689 109.83 163.939 109.83Z" fill="#202022"/>
<path d="M176.039 109.84H176.139C176.389 109.84 176.589 110.04 176.589 110.29C176.589 110.54 176.389 110.74 176.139 110.74H176.039C175.789 110.74 175.589 110.54 175.589 110.29C175.589 110.04 175.789 109.84 176.039 109.84Z" fill="#202022"/>
<path d="M188.139 109.86H188.239C188.479 109.86 188.679 110.06 188.679 110.3C188.679 110.54 188.479 110.74 188.239 110.74H188.139C187.899 110.74 187.699 110.54 187.699 110.3C187.699 110.06 187.899 109.86 188.139 109.86Z" fill="#202022"/>
<path d="M200.24 109.87H200.34C200.58 109.87 200.77 110.06 200.77 110.3C200.77 110.54 200.58 110.73 200.34 110.73H200.24C200 110.73 199.81 110.54 199.81 110.3C199.81 110.06 200 109.87 200.24 109.87Z" fill="#202022"/>
<path d="M212.34 109.88H212.44C212.67 109.88 212.85 110.07 212.85 110.29C212.85 110.52 212.66 110.7 212.44 110.7H212.34C212.11 110.7 211.93 110.51 211.93 110.29C211.93 110.06 212.12 109.88 212.34 109.88Z" fill="#202022"/>
<path d="M127.64 92.73H127.74C128.02 92.73 128.24 92.95 128.24 93.23C128.24 93.51 128.02 93.73 127.74 93.73H127.64C127.37 93.73 127.14 93.51 127.14 93.23C127.14 92.95 127.36 92.73 127.64 92.73Z" fill="#202022"/>
<path d="M139.739 92.74H139.839C140.109 92.74 140.329 92.96 140.329 93.23C140.329 93.5 140.109 93.72 139.839 93.72H139.739C139.469 93.72 139.249 93.5 139.249 93.23C139.249 92.96 139.469 92.74 139.739 92.74Z" fill="#202022"/>
<path d="M151.839 92.75H151.939C152.199 92.75 152.419 92.96 152.419 93.23C152.419 93.49 152.209 93.71 151.939 93.71H151.839C151.579 93.71 151.359 93.5 151.359 93.23C151.359 92.97 151.569 92.75 151.839 92.75Z" fill="#202022"/>
<path d="M163.939 92.76H164.039C164.299 92.76 164.499 92.97 164.499 93.22C164.499 93.48 164.289 93.68 164.039 93.68H163.939C163.679 93.68 163.479 93.47 163.479 93.22C163.479 92.96 163.689 92.76 163.939 92.76Z" fill="#202022"/>
<path d="M176.039 92.77H176.139C176.389 92.77 176.589 92.97 176.589 93.22C176.589 93.47 176.389 93.67 176.139 93.67H176.039C175.789 93.67 175.589 93.47 175.589 93.22C175.589 92.97 175.789 92.77 176.039 92.77Z" fill="#202022"/>
<path d="M188.139 92.79H188.239C188.479 92.79 188.679 92.99 188.679 93.23C188.679 93.47 188.479 93.67 188.239 93.67H188.139C187.899 93.67 187.699 93.47 187.699 93.23C187.699 92.99 187.899 92.79 188.139 92.79Z" fill="#202022"/>
<path d="M200.24 92.7999H200.34C200.58 92.7999 200.77 92.9899 200.77 93.2299C200.77 93.4699 200.58 93.6599 200.34 93.6599H200.24C200 93.6599 199.81 93.4699 199.81 93.2299C199.81 92.9899 200 92.7999 200.24 92.7999Z" fill="#202022"/>
<path d="M212.34 92.8099H212.44C212.67 92.8099 212.85 92.9999 212.85 93.2199C212.85 93.4499 212.66 93.6299 212.44 93.6299H212.34C212.11 93.6299 211.93 93.4399 211.93 93.2199C211.93 92.9899 212.12 92.8099 212.34 92.8099Z" fill="#202022"/>
<path d="M127.64 75.65H127.74C128.02 75.65 128.24 75.87 128.24 76.15C128.24 76.43 128.02 76.65 127.74 76.65H127.64C127.37 76.65 127.14 76.43 127.14 76.15C127.14 75.87 127.36 75.65 127.64 75.65Z" fill="#202022"/>
<path d="M139.739 75.66H139.839C140.109 75.66 140.329 75.88 140.329 76.15C140.329 76.42 140.109 76.64 139.839 76.64H139.739C139.469 76.64 139.249 76.42 139.249 76.15C139.249 75.88 139.469 75.66 139.739 75.66Z" fill="#202022"/>
<path d="M151.839 75.6801H151.939C152.199 75.6801 152.419 75.8901 152.419 76.1601C152.419 76.4201 152.209 76.6401 151.939 76.6401H151.839C151.579 76.6401 151.359 76.4301 151.359 76.1601C151.359 75.9001 151.569 75.6801 151.839 75.6801Z" fill="#202022"/>
<path d="M163.939 75.6901H164.039C164.299 75.6901 164.499 75.9001 164.499 76.1501C164.499 76.4101 164.289 76.6101 164.039 76.6101H163.939C163.679 76.6101 163.479 76.4001 163.479 76.1501C163.479 75.8901 163.689 75.6901 163.939 75.6901Z" fill="#202022"/>
<path d="M176.039 75.7001H176.139C176.389 75.7001 176.589 75.9001 176.589 76.1501C176.589 76.4001 176.389 76.6001 176.139 76.6001H176.039C175.789 76.6001 175.589 76.4001 175.589 76.1501C175.589 75.9001 175.789 75.7001 176.039 75.7001Z" fill="#202022"/>
<path d="M188.139 75.71H188.239C188.479 75.71 188.679 75.91 188.679 76.15C188.679 76.39 188.479 76.59 188.239 76.59H188.139C187.899 76.59 187.699 76.39 187.699 76.15C187.699 75.91 187.899 75.71 188.139 75.71Z" fill="#202022"/>
<path d="M200.24 75.73H200.34C200.58 75.73 200.77 75.92 200.77 76.16C200.77 76.4 200.58 76.59 200.34 76.59H200.24C200 76.59 199.81 76.4 199.81 76.16C199.81 75.92 200 75.73 200.24 75.73Z" fill="#202022"/>
<path d="M212.34 75.74H212.44C212.67 75.74 212.85 75.93 212.85 76.15C212.85 76.38 212.66 76.56 212.44 76.56H212.34C212.11 76.56 211.93 76.38 211.93 76.15C211.93 75.92 212.12 75.74 212.34 75.74Z" fill="#202022"/>
<path d="M127.64 58.58H127.74C128.02 58.58 128.24 58.8 128.24 59.08C128.24 59.36 128.02 59.58 127.74 59.58H127.64C127.37 59.58 127.14 59.36 127.14 59.08C127.14 58.8 127.36 58.58 127.64 58.58Z" fill="#202022"/>
<path d="M139.739 58.59H139.839C140.109 58.59 140.329 58.81 140.329 59.08C140.329 59.35 140.109 59.57 139.839 59.57H139.739C139.469 59.57 139.249 59.35 139.249 59.08C139.249 58.81 139.469 58.59 139.739 58.59Z" fill="#202022"/>
<path d="M151.839 58.61H151.939C152.199 58.61 152.419 58.82 152.419 59.09C152.419 59.35 152.209 59.57 151.939 59.57H151.839C151.579 59.57 151.359 59.36 151.359 59.09C151.359 58.83 151.569 58.61 151.839 58.61Z" fill="#202022"/>
<path d="M163.939 58.62H164.039C164.299 58.62 164.499 58.83 164.499 59.08C164.499 59.34 164.289 59.54 164.039 59.54H163.939C163.679 59.54 163.479 59.33 163.479 59.08C163.479 58.82 163.689 58.62 163.939 58.62Z" fill="#202022"/>
<path d="M176.039 58.63H176.139C176.389 58.63 176.589 58.83 176.589 59.08C176.589 59.33 176.389 59.53 176.139 59.53H176.039C175.789 59.53 175.589 59.33 175.589 59.08C175.589 58.83 175.789 58.63 176.039 58.63Z" fill="#202022"/>
<path d="M188.139 58.6399H188.239C188.479 58.6399 188.679 58.8399 188.679 59.0799C188.679 59.3199 188.479 59.5199 188.239 59.5199H188.139C187.899 59.5199 187.699 59.3199 187.699 59.0799C187.699 58.8399 187.899 58.6399 188.139 58.6399Z" fill="#202022"/>
<path d="M200.24 58.6599H200.34C200.58 58.6599 200.77 58.8499 200.77 59.0899C200.77 59.3299 200.58 59.5199 200.34 59.5199H200.24C200 59.5199 199.81 59.3299 199.81 59.0899C199.81 58.8499 200 58.6599 200.24 58.6599Z" fill="#202022"/>
<path d="M212.34 58.6699H212.44C212.67 58.6699 212.85 58.8599 212.85 59.0799C212.85 59.3099 212.66 59.4899 212.44 59.4899H212.34C212.11 59.4899 211.93 59.2999 211.93 59.0799C211.93 58.8499 212.12 58.6699 212.34 58.6699Z" fill="#202022"/>
<path d="M127.64 41.51H127.74C128.02 41.51 128.24 41.73 128.24 42.01C128.24 42.29 128.02 42.51 127.74 42.51H127.64C127.37 42.51 127.14 42.29 127.14 42.01C127.14 41.73 127.36 41.51 127.64 41.51Z" fill="#202022"/>
<path d="M139.739 41.52H139.839C140.109 41.52 140.329 41.74 140.329 42.01C140.329 42.28 140.109 42.5 139.839 42.5H139.739C139.469 42.5 139.249 42.28 139.249 42.01C139.249 41.74 139.469 41.52 139.739 41.52Z" fill="#202022"/>
<path d="M151.839 41.53H151.939C152.199 41.53 152.419 41.74 152.419 42.01C152.419 42.27 152.209 42.49 151.939 42.49H151.839C151.579 42.49 151.359 42.28 151.359 42.01C151.359 41.75 151.569 41.53 151.839 41.53Z" fill="#202022"/>
<path d="M163.939 41.55H164.039C164.299 41.55 164.499 41.76 164.499 42.01C164.499 42.27 164.289 42.4701 164.039 42.4701H163.939C163.679 42.4701 163.479 42.26 163.479 42.01C163.479 41.75 163.689 41.55 163.939 41.55Z" fill="#202022"/>
<path d="M176.039 41.5601H176.139C176.389 41.5601 176.589 41.7601 176.589 42.0101C176.589 42.2601 176.389 42.4601 176.139 42.4601H176.039C175.789 42.4601 175.589 42.2601 175.589 42.0101C175.589 41.7601 175.789 41.5601 176.039 41.5601Z" fill="#202022"/>
<path d="M188.139 41.5701H188.239C188.479 41.5701 188.679 41.7701 188.679 42.0101C188.679 42.2501 188.479 42.4501 188.239 42.4501H188.139C187.899 42.4501 187.699 42.2501 187.699 42.0101C187.699 41.7701 187.899 41.5701 188.139 41.5701Z" fill="#202022"/>
<path d="M200.24 41.58H200.34C200.58 41.58 200.77 41.77 200.77 42.01C200.77 42.25 200.58 42.44 200.34 42.44H200.24C200 42.44 199.81 42.25 199.81 42.01C199.81 41.77 200 41.58 200.24 41.58Z" fill="#202022"/>
<path d="M212.34 41.6H212.44C212.67 41.6 212.85 41.79 212.85 42.01C212.85 42.24 212.66 42.42 212.44 42.42H212.34C212.11 42.42 211.93 42.23 211.93 42.01C211.93 41.78 212.12 41.6 212.34 41.6Z" fill="#202022"/>
</g>
<path d="M31.7998 171.92L124.26 118.52V33.6899L31.7998 171.92Z" fill="#FEFEFF" stroke="#202022" stroke-linejoin="round"/>
<path d="M124.23 225.49L31.7998 171.92L124.26 118.52L216.85 172.02L124.23 225.49Z" fill="#FEFEFF" stroke="#202022" stroke-linejoin="round"/>
<mask id="mask1_9_25540" style="mask-type:luminance" maskUnits="userSpaceOnUse" x="31" y="33" width="94" height="139">
<path d="M31.7998 171.92L124.26 118.52V33.6899L31.7998 171.92Z" fill="white"/>
</mask>
<g mask="url(#mask1_9_25540)">
<path d="M74.1793 188.18C122.449 188.18 161.579 149.05 161.579 100.78C161.579 52.5103 122.449 13.38 74.1793 13.38C25.9096 13.38 -13.2207 52.5103 -13.2207 100.78C-13.2207 149.05 25.9096 188.18 74.1793 188.18Z" stroke="#202022" stroke-miterlimit="10"/>
<path d="M134.572 143.091C162.272 103.56 157.691 52.5684 124.338 29.1976C90.9861 5.82677 41.4934 18.9268 13.7933 58.4574C-13.9069 97.9879 -9.32501 148.98 24.0272 172.35C57.3794 195.721 106.872 182.621 134.572 143.091Z" stroke="#202022" stroke-miterlimit="10"/>
<path d="M112.206 127.418C139.907 87.8879 145.338 43.9129 124.338 29.1976C103.338 14.4823 63.8587 34.599 36.1585 74.1295C8.45834 113.66 3.02682 157.635 24.0269 172.35C45.0269 187.066 84.5062 166.949 112.206 127.418Z" stroke="#202022" stroke-miterlimit="10"/>
<path d="M101.02 119.579C128.72 80.0489 139.16 39.5836 124.339 29.1976C109.517 18.8116 75.0462 42.438 47.346 81.9685C19.6458 121.499 9.20578 161.964 24.0275 172.35C38.8492 182.736 73.3199 159.11 101.02 119.579Z" stroke="#202022" stroke-miterlimit="10"/>
<path d="M89.8414 111.746C117.542 72.2157 132.987 35.2574 124.339 29.1976C115.691 23.1378 86.2249 50.2712 58.5247 89.8017C30.8246 129.332 15.3796 166.291 24.0275 172.35C32.6754 178.41 62.1413 151.277 89.8414 111.746Z" stroke="#202022" stroke-miterlimit="10"/>
<path d="M123.394 135.257C151.094 95.7268 151.517 48.2422 124.338 29.1976C97.16 10.1529 52.6721 26.76 24.972 66.2906C-2.72818 105.821 -3.15116 153.306 24.0272 172.35C51.2056 191.395 95.6934 174.788 123.394 135.257Z" stroke="#202022" stroke-miterlimit="10"/>
<path d="M124.33 29.21L24.0195 172.35" stroke="#202022" stroke-miterlimit="10"/>
</g>
<path d="M126.01 155.31L164.42 199.2L220.3 59.99L126.01 155.31Z" fill="#FEFEFF" stroke="#202022" stroke-linecap="round" stroke-linejoin="round"/>
<path d="M220.3 59.98L164.42 199.19L145.77 154.6L220.3 59.98Z" fill="#F86D15" stroke="#202022" stroke-linecap="round" stroke-linejoin="round"/>
<path d="M93.2698 161.55L126 155.31L220.29 59.99L93.2598 161.55H93.2698Z" fill="#FEFEFF" stroke="#202022" stroke-linecap="round" stroke-linejoin="round"/>
<path d="M173.15 151.51L145.77 154.6L220.3 59.98L173.15 151.51Z" fill="#FEFEFF" stroke="#202022" stroke-linecap="round" stroke-linejoin="round"/>
<path d="M182.15 36.11L186.12 44.86L194.87 48.84L186.12 52.81L182.15 61.56L178.17 52.81L169.42 48.84L178.17 44.86L182.15 36.11Z" fill="#03D74A" stroke="#202022" stroke-linejoin="round"/>
<path d="M57.0996 98.3L52.0796 107.29L57.0996 116.29L48.0996 111.27L39.0996 116.29L44.1296 107.29L39.0996 98.3L48.0996 103.32L57.0996 98.3Z" fill="#824FE7" stroke="#202022" stroke-linejoin="round"/>
<path d="M169.83 14.51L168.22 20.06L172.39 24.06L166.84 22.45L162.84 26.62L164.45 21.07L160.28 17.07L165.83 18.68L169.83 14.51Z" fill="#FEFEFF" stroke="#202022" stroke-linejoin="round"/>
<path d="M56.59 193.14L54.98 198.69L59.15 202.69L53.6 201.08L49.6 205.25L51.21 199.7L47.04 195.7L52.59 197.31L56.59 193.14Z" fill="#FEFEFF" stroke="#202022" stroke-linejoin="round"/>
<path d="M152.36 41.96L146.24 48.08" stroke="#202022" stroke-width="2" stroke-linejoin="round"/>
<path d="M146.24 41.96L152.36 48.08" stroke="#202022" stroke-width="2" stroke-linejoin="round"/>
<path d="M213.71 132.65H205.05" stroke="#202022" stroke-width="2" stroke-linejoin="round"/>
<path d="M209.38 128.32V136.98" stroke="#202022" stroke-width="2" stroke-linejoin="round"/>
<path d="M51.9301 83.79C65.08 83.79 75.7401 73.1299 75.7401 59.98C75.7401 46.8301 65.08 36.17 51.9301 36.17C38.7802 36.17 28.1201 46.8301 28.1201 59.98C28.1201 73.1299 38.7802 83.79 51.9301 83.79Z" stroke="#202022" stroke-linejoin="round"/>
<path d="M39.4899 39.6801C29.3299 36.8101 21.3899 36.8401 19.9199 41.2701C18.7499 44.8201 22.4099 49.8801 28.6299 55.0801C35.4599 60.7701 45.3899 66.6201 55.3899 70.7901C60.6699 72.9901 65.6299 74.5601 69.9599 75.5201C77.5499 77.1901 83.2399 76.9301 85.4399 74.7701C88.4199 71.8401 84.9499 65.3601 75.6599 58.0401" stroke="#202022" stroke-linejoin="round"/>
</svg>
