<svg width="16" height="16" viewBox="0 0 16 16" fill="none" xmlns="http://www.w3.org/2000/svg">
<path d="M8.00001 4.66667C8.00001 3.95942 7.71906 3.28115 7.21896 2.78105C6.71886 2.28095 6.04059 2 5.33334 2H1.33334V12H6.00001C6.53044 12 7.03915 12.2107 7.41422 12.5858C7.7893 12.9609 8.00001 13.4696 8.00001 14M8.00001 4.66667V14M8.00001 4.66667C8.00001 3.95942 8.28096 3.28115 8.78106 2.78105C9.28116 2.28095 9.95943 2 10.6667 2H14.6667V12H10C9.46958 12 8.96087 12.2107 8.5858 12.5858C8.21072 12.9609 8.00001 13.4696 8.00001 14" stroke="#303032" stroke-width="1.5" stroke-linecap="round" stroke-linejoin="round"/>
</svg>
