<svg width="16" height="16" viewBox="0 0 16 16" fill="none" xmlns="http://www.w3.org/2000/svg">
<path d="M10.6667 5.33331C11.7275 5.33331 12.745 5.75474 13.4951 6.50489C14.2452 7.25503 14.6667 8.27245 14.6667 9.33331V14H12V9.33331C12 8.97969 11.8595 8.64055 11.6095 8.3905C11.3594 8.14046 11.0203 7.99998 10.6667 7.99998C10.313 7.99998 9.97391 8.14046 9.72386 8.3905C9.47381 8.64055 9.33334 8.97969 9.33334 9.33331V14H6.66667V9.33331C6.66667 8.27245 7.0881 7.25503 7.83824 6.50489C8.58839 5.75474 9.6058 5.33331 10.6667 5.33331Z" stroke="#202022" stroke-width="1.5" stroke-linecap="round" stroke-linejoin="round"/>
<path d="M4 5.99998H1.33334V14H4V5.99998Z" stroke="#202022" stroke-width="1.5" stroke-linecap="round" stroke-linejoin="round"/>
<path d="M2.66667 3.99998C3.40305 3.99998 4 3.40303 4 2.66665C4 1.93027 3.40305 1.33331 2.66667 1.33331C1.93029 1.33331 1.33334 1.93027 1.33334 2.66665C1.33334 3.40303 1.93029 3.99998 2.66667 3.99998Z" stroke="#202022" stroke-width="1.5" stroke-linecap="round" stroke-linejoin="round"/>
</svg>
