<svg width="16" height="16" viewBox="0 0 16 16" fill="none" xmlns="http://www.w3.org/2000/svg">
<g clip-path="url(#clip0_65_6081)">
<path d="M10.6667 2.33331C10.6667 1.78103 10.219 1.33331 9.66667 1.33331C9.11438 1.33331 8.66667 1.78103 8.66667 2.33331V5.66665C8.66667 6.21893 9.11438 6.66665 9.66667 6.66665C10.219 6.66665 10.6667 6.21893 10.6667 5.66665V2.33331Z" stroke="#202022" stroke-width="1.5" stroke-linecap="round" stroke-linejoin="round"/>
<path d="M12.6667 5.66665V6.66665H13.6667C13.8645 6.66665 14.0578 6.608 14.2222 6.49812C14.3867 6.38824 14.5149 6.23206 14.5905 6.04933C14.6662 5.8666 14.686 5.66554 14.6475 5.47156C14.6089 5.27758 14.5136 5.09939 14.3738 4.95954C14.2339 4.81969 14.0557 4.72445 13.8618 4.68586C13.6678 4.64728 13.4667 4.66708 13.284 4.74277C13.1013 4.81846 12.9451 4.94663 12.8352 5.11108C12.7253 5.27553 12.6667 5.46887 12.6667 5.66665Z" stroke="#202022" stroke-width="1.5" stroke-linecap="round" stroke-linejoin="round"/>
<path d="M7.33334 10.3333C7.33334 9.78103 6.88562 9.33331 6.33334 9.33331C5.78105 9.33331 5.33334 9.78103 5.33334 10.3333V13.6666C5.33334 14.2189 5.78105 14.6666 6.33334 14.6666C6.88562 14.6666 7.33334 14.2189 7.33334 13.6666V10.3333Z" stroke="#202022" stroke-width="1.5" stroke-linecap="round" stroke-linejoin="round"/>
<path d="M3.33334 10.3333V9.33331H2.33334C2.13555 9.33331 1.94222 9.39196 1.77777 9.50184C1.61332 9.61172 1.48514 9.7679 1.40946 9.95063C1.33377 10.1334 1.31397 10.3344 1.35255 10.5284C1.39114 10.7224 1.48638 10.9006 1.62623 11.0404C1.76608 11.1803 1.94426 11.2755 2.13825 11.3141C2.33223 11.3527 2.53329 11.3329 2.71602 11.2572C2.89875 11.1815 3.05492 11.0533 3.16481 10.8889C3.27469 10.7244 3.33334 10.5311 3.33334 10.3333Z" stroke="#202022" stroke-width="1.5" stroke-linecap="round" stroke-linejoin="round"/>
<path d="M13.6667 8.66665H10.3333C9.78105 8.66665 9.33334 9.11436 9.33334 9.66665C9.33334 10.2189 9.78105 10.6666 10.3333 10.6666H13.6667C14.219 10.6666 14.6667 10.2189 14.6667 9.66665C14.6667 9.11436 14.219 8.66665 13.6667 8.66665Z" stroke="#202022" stroke-width="1.5" stroke-linecap="round" stroke-linejoin="round"/>
<path d="M10.3333 12.6666H9.33334V13.6666C9.33334 13.8644 9.39198 14.0578 9.50187 14.2222C9.61175 14.3867 9.76793 14.5148 9.95065 14.5905C10.1334 14.6662 10.3344 14.686 10.5284 14.6474C10.7224 14.6088 10.9006 14.5136 11.0404 14.3738C11.1803 14.2339 11.2755 14.0557 11.3141 13.8617C11.3527 13.6678 11.3329 13.4667 11.2572 13.284C11.1815 13.1012 11.0534 12.9451 10.8889 12.8352C10.7245 12.7253 10.5311 12.6666 10.3333 12.6666Z" stroke="#202022" stroke-width="1.5" stroke-linecap="round" stroke-linejoin="round"/>
<path d="M5.66667 5.33331H2.33334C1.78105 5.33331 1.33334 5.78103 1.33334 6.33331C1.33334 6.8856 1.78105 7.33331 2.33334 7.33331H5.66667C6.21895 7.33331 6.66667 6.8856 6.66667 6.33331C6.66667 5.78103 6.21895 5.33331 5.66667 5.33331Z" stroke="#202022" stroke-width="1.5" stroke-linecap="round" stroke-linejoin="round"/>
<path d="M5.66667 3.33331H6.66667V2.33331C6.66667 2.13553 6.60802 1.94219 6.49814 1.77774C6.38826 1.61329 6.23208 1.48512 6.04935 1.40943C5.86663 1.33375 5.66556 1.31394 5.47158 1.35253C5.2776 1.39111 5.09942 1.48635 4.95956 1.62621C4.81971 1.76606 4.72447 1.94424 4.68588 2.13822C4.6473 2.3322 4.6671 2.53327 4.74279 2.716C4.81848 2.89872 4.94665 3.0549 5.1111 3.16478C5.27555 3.27466 5.46889 3.33331 5.66667 3.33331Z" stroke="#202022" stroke-width="1.5" stroke-linecap="round" stroke-linejoin="round"/>
</g>
<defs>
<clipPath id="clip0_65_6081">
<rect width="16" height="16" fill="white"/>
</clipPath>
</defs>
</svg>
