<svg width="16" height="16" viewBox="0 0 16 16" fill="none" xmlns="http://www.w3.org/2000/svg">
<path d="M1.66667 11.3333C1.20095 9.13551 1.20095 6.86449 1.66667 4.66667C1.72786 4.44347 1.8461 4.24005 2.00974 4.0764C2.17339 3.91276 2.37681 3.79453 2.6 3.73333C6.17564 3.14097 9.82437 3.14097 13.4 3.73333C13.6232 3.79453 13.8266 3.91276 13.9903 4.0764C14.1539 4.24005 14.2721 4.44347 14.3333 4.66667C14.7991 6.86449 14.7991 9.13551 14.3333 11.3333C14.2721 11.5565 14.1539 11.7599 13.9903 11.9236C13.8266 12.0872 13.6232 12.2055 13.4 12.2667C9.82438 12.8591 6.17563 12.8591 2.6 12.2667C2.37681 12.2055 2.17339 12.0872 2.00974 11.9236C1.8461 11.7599 1.72786 11.5565 1.66667 11.3333Z" stroke="#202022" stroke-width="1.5" stroke-linecap="round" stroke-linejoin="round"/>
<path d="M6.66667 10L10 8L6.66667 6V10Z" stroke="#202022" stroke-width="1.5" stroke-linecap="round" stroke-linejoin="round"/>
</svg>
