<svg width="96" height="24" viewBox="0 0 96 24" fill="none" xmlns="http://www.w3.org/2000/svg">
<path d="M39.5025 12.0645C41.5646 11.6779 42.821 10.3245 42.821 8.39138C42.821 6.1037 40.9846 4.23486 38.1815 4.23486H31.6085V20.055H38.8581C41.6612 20.055 43.53 18.2507 43.53 15.8987C43.53 13.8043 41.9513 12.3221 39.5025 12.0645ZM34.0251 6.42606H37.9881C39.5025 6.42606 40.5014 7.39259 40.5014 8.74581C40.5014 10.067 39.5026 11.0978 37.9881 11.0978H34.0251V6.42606ZM38.4715 17.8641H34.0251V13.1921H38.4715C40.0179 13.1921 41.0168 14.1909 41.0168 15.5119C41.0168 16.8653 40.0179 17.8641 38.4715 17.8641Z" fill="#202022"/>
<path d="M48.2342 11.549V8.52026L45.8497 9.26147V20.0551H48.2342V13.5144C48.2342 11.3235 50.1996 9.97025 52.7448 10.679V8.42378C50.8761 7.97258 49.0397 8.68135 48.2342 11.549Z" fill="#202022"/>
<path d="M54.517 9.26147V20.0551H56.8692V8.52025L54.517 9.26147ZM55.709 3.71948C54.9035 3.71948 54.2271 4.36393 54.2271 5.20163C54.2271 6.00716 54.9036 6.65132 55.709 6.65132C56.5144 6.65132 57.1912 6.00707 57.1912 5.20163C57.1912 4.36393 56.5145 3.71948 55.709 3.71948Z" fill="#202022"/>
<path d="M66.0518 8.29468C64.0541 8.29468 62.5399 9.51906 61.9277 11.4845V8.52028L59.5433 9.26149V20.0552H61.9277V13.5144C61.9277 11.7423 63.2487 10.4536 65.1497 10.4536C66.825 10.4536 68.1139 11.7423 68.1139 13.5144V20.0552H70.4981V13.1601C70.4981 10.3246 68.6938 8.29468 66.0518 8.29468Z" fill="#202022"/>
<path d="M79.6808 10.6146V8.5203H76.4268V4.00964L74.0423 4.75067V8.5204H71.5938V10.6147H74.0423V15.8343C74.0423 18.6697 75.428 20.0552 78.3922 20.0552H79.6809V17.9286H78.3922C77.0067 17.9286 76.4268 17.3487 76.4268 15.9309V10.6147H79.6808V10.6146Z" fill="#202022"/>
<path d="M86.9302 8.29468C83.5149 8.29468 80.9373 10.8725 80.9373 14.2878C80.9373 17.6708 83.5793 20.2807 87.027 20.2807C89.5723 20.2807 91.5056 18.9274 92.5045 17.0264L90.5068 16.1564C89.8623 17.413 88.6057 18.2186 87.1236 18.2186C85.1259 18.2186 83.6439 16.8976 83.3216 15.061H92.8588C93.2776 11.3234 90.6356 8.29468 86.9302 8.29468ZM83.3861 13.2245C83.8049 11.549 85.1582 10.3246 86.9302 10.3246C88.7668 10.3246 90.0879 11.549 90.4745 13.2245H83.3861Z" fill="#202022"/>
<path d="M14.508 8.3894V10.7872C14.2762 10.7931 14.0959 10.786 13.9016 10.8001C11.3048 10.8516 8.87897 11.6138 6.82073 13.0059C6.09487 13.4788 5.42047 14.0303 4.79292 14.6567L3.09766 12.9637C3.83993 12.2179 4.64777 11.5611 5.49305 11.0085C7.92127 9.36707 10.7967 8.46323 13.7892 8.40582C13.9718 8.39056 14.2013 8.3894 14.508 8.3894Z" fill="#202022"/>
<path d="M14.1287 13.1919C17.0112 13.1919 19.7203 14.3147 21.7598 16.3541L20.0646 18.0494C16.8894 14.8766 11.3656 14.8766 8.19514 18.0494L6.49988 16.3541C8.537 14.3147 11.2485 13.1919 14.1287 13.1919Z" fill="#202022"/>
<path d="M14.1287 17.9827C15.7257 17.9827 17.2312 18.6079 18.3669 19.7447L16.6717 21.4399C15.3065 20.0748 12.9556 20.0724 11.5858 21.4399L9.8905 19.7447C11.0285 18.6078 12.5341 17.9827 14.1287 17.9827Z" fill="#202022"/>
<path d="M23.4598 9.35046L25.1551 11.0457C24.4081 11.7927 23.6027 12.4495 22.7597 12.9998C20.2449 14.6799 17.3203 15.5826 14.3113 15.6025C14.1966 15.62 14.0116 15.6223 13.7681 15.5955L14.0256 13.2118C14.0912 13.2188 14.1099 13.2188 14.1755 13.2118C16.8356 13.1884 19.3035 12.4262 21.4366 10.999C22.1533 10.5318 22.83 9.98032 23.4598 9.35046Z" fill="#202022"/>
<path d="M20.0646 5.95056L21.7598 7.64583C19.7203 9.68535 17.0111 10.8081 14.1287 10.8081C11.2486 10.8081 8.53709 9.68525 6.49988 7.64583L8.19514 5.95056C11.3656 9.12336 16.8894 9.12336 20.0646 5.95056Z" fill="#202022"/>
<path d="M11.5858 2.55994C12.9556 3.92976 15.3066 3.92746 16.6717 2.55994L18.367 4.2552C16.1003 6.52887 12.1712 6.53117 9.89044 4.2552L11.5858 2.55994Z" fill="#202022"/>
</svg>
